<svg xmlns="http://www.w3.org/2000/svg" xml:space="preserve" viewBox="0 0 50 50"><path fill="#fff" d="M2.91 24.2c2.09.84 4.36 1.32 6.75 1.32 9.95 0 18.01-8.06 18.01-18.01 0-2.25-.43-4.4-1.19-6.38H2.91zM46.07 48.12H7.21c.06-8.88 6.07-16.33 14.24-18.59l5.19 8.99 5.19-8.99c8.17 2.26 14.18 9.72 14.24 18.59"/><path fill="#239d33" d="M39.33 16.2v-2.77l-3.97-.75c-.21-.9-.57-1.75-1.04-2.52l2.28-3.34-1.96-1.96-3.34 2.28c-.77-.47-1.62-.83-2.53-1.04l-.75-3.97h-2.77l-.74 3.97c-.9.21-1.76.57-2.53 1.04l-3.34-2.28-1.96 1.96 2.28 3.34c-.47.77-.83 1.62-1.04 2.52l-3.97.75v2.77l3.97.75c.21.9.57 1.75 1.04 2.52l-2.28 3.34 1.96 1.96 3.34-2.28a8.9 8.9 0 0 0 2.52 1.05l.75 3.97h2.77l.75-3.97c.9-.21 1.75-.57 2.52-1.05l3.34 2.28 1.96-1.96-2.28-3.34c.47-.77.83-1.62 1.04-2.52zm-12.69 2.77c-2.3 0-4.16-1.86-4.16-4.16s1.86-4.16 4.16-4.16 4.16 1.86 4.16 4.16-1.86 4.16-4.16 4.16"/><g fill="#239d33"><path d="M32.3 28.81a.75.75 0 0 0-.85.35l-4.54 7.86-4.54-7.86a.75.75 0 0 0-.85-.35C12.88 31.2 6.8 39.14 6.73 48.12a.75.75 0 0 0 .75.75h38.85a.75.75 0 0 0 .75-.75c-.06-8.98-6.14-16.92-14.78-19.31m7.22 18.57v-3.76c0-.41-.34-.75-.75-.75s-.75.34-.75.75v3.76H15.8v-3.76c0-.41-.34-.75-.75-.75s-.75.34-.75.75v3.76H8.25c.37-7.81 5.65-14.64 13.12-16.96l4.89 8.48c.13.23.38.38.65.38s.52-.14.65-.38l4.89-8.48c7.46 2.31 12.74 9.15 13.11 16.95h-6.04zM14.08 16.94l3.5.66c.19.64.44 1.25.76 1.84l-2.01 2.95c-.2.3-.17.7.09.95l1.96 1.96c.26.25.66.29.95.09l2.95-2.01c.59.32 1.2.58 1.84.76l.66 3.51c.07.35.38.61.74.61h2.77c.36 0 .67-.26.74-.61l.66-3.51c.64-.19 1.25-.44 1.84-.76l2.95 2.01c.3.2.7.17.95-.09l1.96-1.96c.25-.25.29-.65.09-.95l-2.01-2.95c.32-.59.58-1.2.76-1.84l3.5-.66a.76.76 0 0 0 .61-.74v-2.77a.76.76 0 0 0-.61-.74l-3.5-.66c-.19-.64-.44-1.25-.76-1.84l2.01-2.94c.2-.3.17-.7-.09-.95l-1.96-1.96a.76.76 0 0 0-.96-.09l-2.94 2.02c-.58-.32-1.2-.57-1.84-.76L29.03 2a.76.76 0 0 0-.74-.61h-2.77a.76.76 0 0 0-.74.61l-.66 3.51c-.64.19-1.26.44-1.84.76l-2.94-2.02c-.3-.2-.7-.17-.96.09L16.42 6.3c-.25.25-.29.65-.09.95l2.01 2.94c-.32.59-.58 1.2-.76 1.84l-3.5.66a.76.76 0 0 0-.61.74v2.77c0 .36.26.67.61.74m.89-2.89 3.35-.63c.29-.05.52-.28.59-.56.19-.81.51-1.58.95-2.3.16-.25.15-.57-.02-.82l-1.92-2.82L19 5.84l2.82 1.93c.25.17.56.17.82.02.71-.44 1.49-.76 2.31-.95.29-.07.51-.3.56-.59l.63-3.36h1.53l.63 3.36c.05.29.28.52.56.59.82.2 1.6.52 2.31.95.25.16.57.15.82-.02l2.82-1.93 1.08 1.08-1.92 2.82a.76.76 0 0 0-.02.82c.44.72.76 1.49.95 2.3.07.29.3.51.59.56l3.35.63v1.53l-3.35.63c-.29.05-.52.28-.59.56-.19.81-.51 1.59-.95 2.3-.16.25-.15.57.02.82l1.93 2.83-1.08 1.08-2.83-1.93a.74.74 0 0 0-.81-.02c-.72.44-1.49.76-2.3.95-.29.07-.51.3-.56.59l-.63 3.36h-1.53l-.63-3.36a.75.75 0 0 0-.56-.59c-.81-.19-1.58-.51-2.3-.95a.74.74 0 0 0-.81.02l-2.83 1.93-1.08-1.08 1.93-2.83a.76.76 0 0 0 .02-.82c-.44-.71-.76-1.49-.95-2.3a.74.74 0 0 0-.59-.56l-3.35-.63v-1.53z"/><path d="M26.91 19.72c2.71 0 4.91-2.2 4.91-4.91s-2.2-4.91-4.91-4.91S22 12.11 22 14.82s2.21 4.9 4.91 4.9m0-8.31c1.88 0 3.41 1.53 3.41 3.41s-1.53 3.41-3.41 3.41-3.41-1.53-3.41-3.41 1.53-3.41 3.41-3.41"/></g></svg>