<svg width="12" height="12" viewBox="0 0 12 12" fill="none" xmlns="http://www.w3.org/2000/svg">
<path d="M6.79844 0.400391C6.35661 0.400391 5.99844 0.758563 5.99844 1.20039C5.99844 1.64222 6.35661 2.00039 6.79844 2.00039H8.86707L3.83275 7.03471C3.52033 7.34713 3.52033 7.85366 3.83275 8.16608C4.14517 8.4785 4.6517 8.4785 4.96412 8.16608L9.99844 3.13176V5.20039C9.99844 5.64222 10.3566 6.00039 10.7984 6.00039C11.2403 6.00039 11.5984 5.64222 11.5984 5.20039V1.20039C11.5984 0.758563 11.2403 0.400391 10.7984 0.400391H6.79844Z" fill="#7C3AED"/>
<path d="M1.99844 2.00039C1.11478 2.00039 0.398438 2.71673 0.398438 3.60039V10.0004C0.398438 10.884 1.11478 11.6004 1.99844 11.6004H8.39844C9.28209 11.6004 9.99844 10.884 9.99844 10.0004V7.60039C9.99844 7.15856 9.64027 6.80039 9.19844 6.80039C8.75661 6.80039 8.39844 7.15856 8.39844 7.60039V10.0004H1.99844V3.60039L4.39844 3.60039C4.84027 3.60039 5.19844 3.24222 5.19844 2.80039C5.19844 2.35856 4.84027 2.00039 4.39844 2.00039H1.99844Z" fill="#7C3AED"/>
</svg>
